<svg width="12" height="12" viewBox="0 0 12 12" fill="none" xmlns="http://www.w3.org/2000/svg">
<g clip-path="url(#clip0_490_2584)">
<path d="M4.62497 4.00003H0.874969C0.392487 4.00003 0 3.60754 0 3.12497V0.874969C0 0.392487 0.392487 0 0.874969 0H4.62497C5.10754 0 5.50003 0.392487 5.50003 0.874969V3.12497C5.50003 3.60754 5.10754 4.00003 4.62497 4.00003ZM0.874969 0.75C0.80603 0.75 0.75 0.80603 0.75 0.874969V3.12497C0.75 3.194 0.80603 3.25003 0.874969 3.25003H4.62497C4.694 3.25003 4.75003 3.194 4.75003 3.12497V0.874969C4.75003 0.80603 4.694 0.75 4.62497 0.75H0.874969Z" fill="white"/>
<path d="M4.62497 12H0.874969C0.392487 12 0 11.6075 0 11.1251V5.87506C0 5.39249 0.392487 5 0.874969 5H4.62497C5.10754 5 5.50003 5.39249 5.50003 5.87506V11.1251C5.50003 11.6075 5.10754 12 4.62497 12ZM0.874969 5.75C0.80603 5.75 0.75 5.80603 0.75 5.87506V11.1251C0.75 11.194 0.80603 11.25 0.874969 11.25H4.62497C4.694 11.25 4.75003 11.194 4.75003 11.1251V5.87506C4.75003 5.80603 4.694 5.75 4.62497 5.75H0.874969Z" fill="white"/>
<path d="M11.1251 12H7.37506C6.89249 12 6.5 11.6075 6.5 11.1251V8.87506C6.5 8.39249 6.89249 8 7.37506 8H11.1251C11.6075 8 12 8.39249 12 8.87506V11.1251C12 11.6075 11.6075 12 11.1251 12ZM7.37506 8.75C7.30603 8.75 7.25 8.80603 7.25 8.87506V11.1251C7.25 11.194 7.30603 11.25 7.37506 11.25H11.1251C11.194 11.25 11.25 11.194 11.25 11.1251V8.87506C11.25 8.80603 11.194 8.75 11.1251 8.75H7.37506Z" fill="white"/>
<path d="M11.1251 7.00003H7.37506C6.89249 7.00003 6.5 6.60754 6.5 6.12497V0.874969C6.5 0.392487 6.89249 0 7.37506 0H11.1251C11.6075 0 12 0.392487 12 0.874969V6.12497C12 6.60754 11.6075 7.00003 11.1251 7.00003ZM7.37506 0.75C7.30603 0.75 7.25 0.80603 7.25 0.874969V6.12497C7.25 6.194 7.30603 6.25003 7.37506 6.25003H11.1251C11.194 6.25003 11.25 6.194 11.25 6.12497V0.874969C11.25 0.80603 11.194 0.75 11.1251 0.75H7.37506Z" fill="white"/>
</g>
<defs>
<clipPath id="clip0_490_2584">
<rect width="12" height="12" fill="white"/>
</clipPath>
</defs>
</svg>
