<svg version="1.2" xmlns="http://www.w3.org/2000/svg" viewBox="0 0 119 123" width="119" height="123">
	<title>icon-bought-svg</title>
	<style>
		.s0 { fill: #c8ced3 } 
	</style>
	<g id="Layer">
		<path id="Layer" fill-rule="evenodd" class="s0" d="m3.9 22.8c-2.1 0-3.9-1.8-3.9-4 0-2.1 1.8-4 3.9-4 0.1 0 5.8 0 5.9 0 3.6 0.1 6.8 0.8 9.5 2.6 3 1.9 5.2 4.8 6.4 9.1 0 0.1 0 0.2 0.1 0.3l1 4h11.6c0.7 3 2.4 5.7 4.8 7.9h-14.2l9 33.6h63.4l8.3-33.6h-13.7c2.4-2.2 4-4.9 4.7-7.9h14c2.3 0 4 1.9 4 4 0 0.4-0.1 0.8-0.2 1.2l-10.3 41.3c-0.4 1.8-2 3-3.8 3h-64.3c1.4 5.2 2.8 8 4.7 9.3 2.3 1.5 6.3 1.6 13.1 1.5h45.5c2.2 0 3.9 1.8 3.9 4 0 2.2-1.8 3.9-3.9 3.9h-45.4c-8.4 0.1-13.5-0.1-17.6-2.8-4.2-2.8-6.4-7.7-8.7-16.4l-13.4-51c0-0.1 0-0.1-0.1-0.2q-0.9-3.3-3-4.5c-1.4-0.9-3.3-1.3-5.5-1.3q-0.2 0-0.3 0zm62.7 21.3l-16.3-13.3c-2-1.6-2.3-4.5-0.7-6.5 1.6-2 4.5-2.3 6.5-0.7l8.8 7.3v-26.2c0-2.6 2-4.7 4.6-4.7 2.5 0 4.6 2.1 4.6 4.6v26.3l8.8-7.3c2-1.6 4.9-1.3 6.5 0.7 1.6 2 1.3 4.9-0.7 6.5l-16.2 13.3-0.1 0.1c-1.7 1.3-3.9 1.4-5.8 0zm14.9 13.9c0-1.2 1.2-2.2 2.7-2.2 1.5 0 2.7 1 2.7 2.2v4.7c0 1.3-1.2 2.3-2.7 2.3-1.5 0-2.7-1-2.7-2.3zm-16.4 0c0-1.2 1.2-2.2 2.7-2.2 1.6 0 2.8 1 2.8 2.2v4.8c0 1.2-1.3 2.2-2.8 2.2-1.5 0-2.7-1-2.7-2.2zm-16.3 0c0-1.3 1.2-2.3 2.7-2.3 1.5 0 2.7 1 2.7 2.3v4.7c0 1.2-1.2 2.2-2.7 2.2-1.5 0-2.7-1-2.7-2.2zm42.8 45.5c5.4 0 9.7 4.3 9.7 9.6 0 5.4-4.3 9.7-9.7 9.7-5.3 0-9.6-4.3-9.6-9.7 0-5.3 4.3-9.6 9.6-9.6zm-42.3 0c5.4 0 9.7 4.3 9.7 9.6 0 5.4-4.3 9.7-9.7 9.7-5.3 0-9.6-4.3-9.6-9.7 0-5.3 4.3-9.6 9.6-9.6z"/>
	</g>
</svg>