<svg width="12" height="14" viewBox="0 0 12 14" fill="none" xmlns="http://www.w3.org/2000/svg">
<path d="M10.1333 7.18763V5.87891C10.1333 3.96971 8.89571 2.35154 7.20001 1.82301V1.23047C7.20001 0.551988 6.66169 0 6.00001 0C5.33834 0 4.80002 0.551988 4.80002 1.23047V1.82301C3.10429 2.35154 1.86669 3.96968 1.86669 5.87891V7.18763C1.86669 8.86468 1.24328 10.4549 0.111311 11.6653C0.000377834 11.784 -0.0307954 11.959 0.0320844 12.1101C0.0949642 12.2613 0.239764 12.3594 0.40003 12.3594H4.04026C4.22607 13.2943 5.03418 14 6.00001 14C6.96588 14 7.77393 13.2943 7.95977 12.3594H11.6C11.7603 12.3594 11.905 12.2613 11.9679 12.1101C12.0308 11.959 11.9996 11.784 11.8887 11.6653C10.7567 10.4549 10.1333 8.86465 10.1333 7.18763ZM5.60001 1.23047C5.60001 1.00431 5.77945 0.820312 6.00001 0.820312C6.22057 0.820312 6.40001 1.00431 6.40001 1.23047V1.66053C6.26836 1.64752 6.13495 1.64062 6.00001 1.64062C5.86508 1.64062 5.73167 1.64752 5.60001 1.66053V1.23047ZM6.00001 13.1797C5.47855 13.1797 5.03394 12.8368 4.86882 12.3594H7.13121C6.96609 12.8368 6.52148 13.1797 6.00001 13.1797ZM1.26216 11.5391C2.17312 10.2869 2.66669 8.77166 2.66669 7.18763V5.87891C2.66669 3.99424 4.16202 2.46094 6.00001 2.46094C7.83801 2.46094 9.33334 3.99424 9.33334 5.87891V7.18763C9.33334 8.77166 9.82691 10.2869 10.7379 11.5391H1.26216Z" fill="#C8CED3"/>
</svg>
