<svg width="12" height="12" viewBox="0 0 12 12" fill="none" xmlns="http://www.w3.org/2000/svg">
<g clip-path="url(#clip0_490_2589)">
<path d="M3.64258 5.99463C3.64437 4.69319 4.70392 3.63936 6.00751 3.64259C7.30896 3.64581 8.36099 4.70643 8.35634 6.01073C8.35205 7.30573 7.295 8.35705 5.99785 8.35633C4.6964 8.35597 3.64079 7.2975 3.64258 5.99463Z" fill="#C8CED3"/>
<path d="M4.59956 3.32744C4.36625 3.4967 4.1401 3.66023 3.905 3.83056C3.7132 3.56505 3.51854 3.29416 3.32209 3.02471C3.21188 2.87371 3.12779 2.66902 2.97857 2.59137C2.83436 2.51623 2.62109 2.57277 2.43824 2.57169C2.425 2.57169 2.4114 2.57312 2.39816 2.57134C2.18239 2.54128 2.03568 2.59567 1.8997 2.80178C1.64492 3.18717 1.13035 3.30848 0.692364 3.14351C0.252585 2.97748 -0.0247369 2.54736 0.00174289 2.07287C0.027507 1.61627 0.366019 1.21049 0.811523 1.10278C1.2742 0.990775 1.74619 1.18293 1.98415 1.59373C2.03925 1.68855 2.09722 1.71861 2.20207 1.71647C2.53199 1.71002 2.86227 1.71503 3.19256 1.71396C3.32996 1.7136 3.45413 1.75404 3.53536 1.86425C3.89499 2.35127 4.24853 2.84293 4.59956 3.32744Z" fill="#C8CED3"/>
<path d="M3.90781 8.17188C4.14076 8.34077 4.36655 8.5043 4.59914 8.67285C4.25061 9.15378 3.89994 9.64222 3.54425 10.1267C3.4598 10.2416 3.33455 10.2867 3.19214 10.2863C2.85291 10.2853 2.51404 10.2888 2.17481 10.2842C2.08929 10.2831 2.04313 10.306 1.99876 10.3851C1.73253 10.8549 1.18361 11.0471 0.684069 10.8546C0.189182 10.6635 -0.0856352 10.1478 0.0270829 9.6204C0.135149 9.11513 0.609997 8.75407 1.13924 8.78986C1.52248 8.81562 1.81411 9.00384 2.00377 9.33878C2.04205 9.40641 2.08106 9.43253 2.15799 9.4311C2.40311 9.42645 2.64894 9.43432 2.89406 9.42538C2.94917 9.42323 3.02073 9.38637 3.05365 9.34236C3.31487 8.99204 3.56858 8.63599 3.82479 8.28209C3.8527 8.24237 3.88276 8.20444 3.90781 8.17188Z" fill="#C8CED3"/>
<path d="M8.09235 3.82773C7.85439 3.65597 7.63146 3.49458 7.40137 3.32819C7.50514 3.18363 7.61356 3.03226 7.7227 2.88126C7.95243 2.56314 8.18396 2.24646 8.41118 1.92655C8.51531 1.77984 8.65093 1.71078 8.83164 1.71293C9.16156 1.71722 9.49185 1.71185 9.82213 1.71579C9.90586 1.71686 9.95417 1.69754 9.99926 1.61703C10.2626 1.14719 10.8137 0.952886 11.3125 1.14433C11.8085 1.33505 12.0844 1.85033 11.972 2.37671C11.8643 2.88304 11.3898 3.24482 10.8624 3.21046C10.4845 3.18577 10.1928 3.00328 10.0039 2.67478C9.95596 2.59141 9.90658 2.56708 9.81712 2.56922C9.58524 2.57495 9.35301 2.57495 9.12113 2.56887C9.03561 2.56672 8.98443 2.5932 8.9347 2.66333C8.68528 3.01652 8.42979 3.36576 8.17608 3.71608C8.14781 3.7558 8.11811 3.79409 8.09235 3.82773Z" fill="#C8CED3"/>
<path d="M7.40234 8.67044C7.63351 8.50297 7.85679 8.34123 8.09153 8.1709C8.113 8.19881 8.1427 8.23531 8.17026 8.27324C8.42361 8.62356 8.67874 8.97317 8.92851 9.32635C8.97968 9.39863 9.03121 9.43298 9.12353 9.43012C9.3597 9.42296 9.59659 9.42404 9.83276 9.42976C9.91506 9.43191 9.95657 9.40507 9.99736 9.33279C10.2622 8.86295 10.8114 8.6665 11.3103 8.85723C11.8023 9.04509 12.0789 9.55214 11.9748 10.0749C11.8731 10.5849 11.408 10.9516 10.8784 10.9248C10.489 10.9051 10.192 10.718 9.99808 10.3798C9.95693 10.3079 9.91542 10.2818 9.83312 10.2832C9.4896 10.2882 9.14607 10.2846 8.80255 10.2853C8.64904 10.2857 8.52451 10.2259 8.4347 10.1021C8.11014 9.65448 7.78702 9.20612 7.46318 8.75775C7.44242 8.72841 7.42238 8.69906 7.40234 8.67044Z" fill="#C8CED3"/>
<path d="M6.42869 3.01309C6.14063 3.01309 5.86617 3.01309 5.57167 3.01309C5.57167 2.83024 5.56058 2.63522 5.57453 2.44235C5.59135 2.20653 5.55557 2.03835 5.32476 1.88484C4.94152 1.63006 4.83381 1.10727 5.007 0.672857C5.17841 0.242382 5.60924 -0.0277832 6.07622 0.00227491C6.52924 0.0312595 6.92536 0.361541 7.03808 0.803824C7.15438 1.26114 6.9658 1.74207 6.55679 1.97895C6.44801 2.04193 6.42475 2.1092 6.42726 2.21977C6.43262 2.48565 6.42869 2.75223 6.42869 3.01309Z" fill="#C8CED3"/>
<path d="M3.01335 5.57119C3.01335 5.85853 3.01335 6.13264 3.01335 6.41927C2.99188 6.42141 2.9586 6.42785 2.92496 6.42785C2.76 6.42893 2.59397 6.43966 2.43044 6.42571C2.19677 6.40567 2.03574 6.4529 1.88653 6.67476C1.62924 7.05693 1.10967 7.16572 0.674184 6.99324C0.243351 6.82291 -0.0271724 6.39243 0.00217004 5.92473C0.030439 5.47279 0.362152 5.07415 0.802646 4.96179C1.26032 4.84514 1.74125 5.03372 1.97813 5.44201C2.0404 5.54936 2.10624 5.57584 2.21824 5.57298C2.48483 5.56654 2.75141 5.57119 3.01335 5.57119Z" fill="#C8CED3"/>
<path d="M8.98633 6.42827C8.98633 6.14129 8.98633 5.86683 8.98633 5.58057C9.0078 5.57842 9.04108 5.57198 9.07436 5.57162C9.22143 5.57055 9.36921 5.56232 9.51557 5.57305C9.77034 5.59202 9.96035 5.5591 10.1325 5.30611C10.3926 4.92323 10.9219 4.83162 11.3502 5.01483C11.7703 5.19447 12.0336 5.63102 11.9968 6.08726C11.9599 6.54672 11.6164 6.94391 11.1713 7.04303C10.7089 7.14537 10.2481 6.95357 10.0144 6.54636C9.95856 6.44903 9.89809 6.42398 9.79468 6.42649C9.52415 6.43257 9.25327 6.42827 8.98633 6.42827Z" fill="#C8CED3"/>
<path d="M5.57129 8.98633C5.86507 8.98633 6.13953 8.98633 6.4283 8.98633C6.4283 9.25971 6.43188 9.53954 6.42615 9.81936C6.42436 9.9099 6.4512 9.95785 6.53386 10.0044C6.95825 10.243 7.16007 10.7404 7.03304 11.2078C6.90601 11.6762 6.48054 12.0007 5.99568 11.9996C5.51726 11.9982 5.09609 11.6765 4.96727 11.2138C4.83702 10.7462 5.03561 10.252 5.46 10.0083C5.54409 9.95999 5.5763 9.91097 5.57344 9.81221C5.56592 9.53703 5.57129 9.26114 5.57129 8.98633Z" fill="#C8CED3"/>
</g>
<defs>
<clipPath id="clip0_490_2589">
<rect width="12" height="11.9993" fill="white"/>
</clipPath>
</defs>
</svg>
