<svg width="18" height="18" viewBox="0 0 18 18" fill="none" xmlns="http://www.w3.org/2000/svg">
<path d="M15.9371 1H1.67232C1.42073 0.999525 1.19007 1.14007 1.07506 1.36391C0.958468 1.59075 0.978931 1.86392 1.12789 2.07109L6.35391 9.43296C6.35565 9.43549 6.35756 9.43787 6.3593 9.44041C6.54919 9.69676 6.65182 10.0072 6.65246 10.3264V16.3284C6.65135 16.5063 6.72115 16.677 6.84647 16.8031C6.97179 16.9292 7.14216 16.9999 7.31983 16.9999C7.41025 16.9999 7.49956 16.9818 7.583 16.9473L10.5196 15.8275C10.7828 15.7472 10.9575 15.4989 10.9575 15.1999V10.3264C10.9579 10.0074 11.0607 9.69676 11.2504 9.44041C11.2522 9.43787 11.2541 9.43549 11.2558 9.43296L16.4817 2.07078C16.6307 1.86376 16.6511 1.59075 16.5345 1.36391C16.4195 1.14007 16.1889 0.999525 15.9371 1Z" fill="#3882FE" stroke="#3882FE" stroke-width="1.3"/>
</svg>
