<svg width="14" height="10" viewBox="0 0 14 10" fill="none" xmlns="http://www.w3.org/2000/svg">
<path d="M6.74999 2.375C6.50158 2.37888 6.25501 2.41835 6.0178 2.49219C6.12752 2.68515 6.18595 2.90303 6.18749 3.125C6.18749 3.29736 6.15354 3.46803 6.08758 3.62727C6.02162 3.78651 5.92494 3.9312 5.80306 4.05308C5.68119 4.17495 5.5365 4.27163 5.37726 4.33759C5.21802 4.40355 5.04735 4.4375 4.87499 4.4375C4.65301 4.43596 4.43514 4.37754 4.24217 4.26781C4.08993 4.79581 4.10768 5.35833 4.29289 5.87568C4.47811 6.39303 4.82141 6.839 5.27417 7.1504C5.72692 7.46181 6.26618 7.62286 6.81556 7.61076C7.36493 7.59866 7.89657 7.414 8.33518 7.08296C8.77378 6.75192 9.09711 6.29127 9.25936 5.76626C9.42161 5.24125 9.41456 4.6785 9.23921 4.15772C9.06386 3.63694 8.7291 3.18453 8.28235 2.86457C7.83559 2.54462 7.29949 2.37334 6.74999 2.375ZM13.4184 4.65781C12.1474 2.17789 9.63116 0.5 6.74999 0.5C3.86881 0.5 1.35186 2.17906 0.0815497 4.65805C0.0279345 4.7641 0 4.88128 0 5.00012C0 5.11896 0.0279345 5.23613 0.0815497 5.34219C1.35257 7.82211 3.86881 9.5 6.74999 9.5C9.63116 9.5 12.1481 7.82094 13.4184 5.34195C13.472 5.2359 13.5 5.11872 13.5 4.99988C13.5 4.88104 13.472 4.76387 13.4184 4.65781ZM6.74999 8.375C4.43788 8.375 2.31819 7.08594 1.1735 5C2.31819 2.91406 4.43764 1.625 6.74999 1.625C9.06233 1.625 11.1818 2.91406 12.3265 5C11.182 7.08594 9.06233 8.375 6.74999 8.375Z" fill="#4D5D7D"/>
</svg>
