<svg width="12" height="12" viewBox="0 0 12 12" fill="none" xmlns="http://www.w3.org/2000/svg">
<path d="M11.297 0.703266C10.8435 0.24975 10.2406 0 9.59928 0C8.95796 0 8.355 0.24975 7.90151 0.703242L1.19147 7.4133C1.13438 7.4704 1.09301 7.54127 1.07136 7.61906L0.0174179 11.4056C-0.0280274 11.5689 0.0182148 11.744 0.138426 11.8636C0.227488 11.9522 0.346832 12 0.469035 12C0.511738 12 0.554816 11.9941 0.597074 11.9821L4.38357 10.9066C4.54332 10.8612 4.66716 10.7347 4.70907 10.5739C4.75097 10.4132 4.70471 10.2424 4.58745 10.1247L2.20029 7.73032L7.76236 2.16823L9.83091 4.23677L5.57293 8.48316C5.38962 8.66597 5.38922 8.96276 5.57204 9.14606C5.75482 9.32939 6.05166 9.32977 6.23494 9.14698L11.297 4.09873C11.7505 3.64523 12.0002 3.0423 12.0002 2.40098C12.0002 1.75966 11.7505 1.15673 11.297 0.703266ZM3.36106 10.2225L1.14462 10.852L1.76536 8.62191L3.36106 10.2225ZM10.6345 3.43535L10.4947 3.57478L8.42529 1.50532L8.56447 1.36615C8.84086 1.08973 9.20836 0.9375 9.59928 0.9375C9.99019 0.9375 10.3577 1.08973 10.6341 1.36617C10.9105 1.64257 11.0627 2.01007 11.0627 2.40098C11.0627 2.7919 10.9105 3.1594 10.6345 3.43535Z" fill="#3882FE"/>
</svg>
