<svg version="1.2" xmlns="http://www.w3.org/2000/svg" viewBox="0 0 123 102" width="123" height="102">
	<title>icon-news-svg</title>
	<style>
		.s0 { fill: #c8ced3 } 
	</style>
	<g id="Layer">
		<path id="Layer" fill-rule="evenodd" class="s0" d="m13.2 101.1q-0.7 0.1-1.4 0c-1.8-0.1-3.6-0.6-5.2-1.6-3.6-2.1-6.3-6.1-6.6-11.3q0-0.1 0-0.2v-70.5c0-1 0.9-1.9 2-1.9h18.4v-13.6c0-1.1 0.9-2 2-2h98.5c1.1 0 2 0.9 2 2v86q0 0.2 0 0.4-0.5 5.8-3.9 9.1-3.4 3.2-9.7 3.6-0.1 0-0.2 0zm10.2-9.4c-0.6 2.2-1.6 4.1-2.8 5.5h88.6q4.7-0.3 7.1-2.6 2.4-2.2 2.6-6.6v-84h-94.5v80c0 3.4 0 4.4-1 7.7zm12-75.2h72.7v30.7h-72.7zm-23.3 80.7q0.1 0 0.3 0h0.7q1.2-0.1 2.3-0.7c4.4-2.3 5-7.9 5-12.4v-64.5h-16.4c0 0 0 68.4 0 68.4 0.2 3.8 2.1 6.7 4.6 8.1 1.1 0.7 2.3 1 3.4 1.1zm28.9-73v15.4h3.9v-8.5l5 8.5h4v-15.4h-4v8.5l-5-8.5zm16.3 15.4h11.4v-3.5h-7.2v-3h6.4v-3.2h-6.4v-2.4h7v-3.3h-11.2zm15.9 0h4.1l2.3-9.7 2.4 9.7h4.1l3-15.5h-4l-1.4 8.7-2.1-8.7h-3.9l-2.1 8.7-1.4-8.7h-4zm18.7-1.2q1.3 1.5 4.7 1.5 2 0 3.3-0.6 1.3-0.7 2-1.9 0.7-1.3 0.7-2.8 0-1.2-0.5-2.2-0.6-1.1-1.7-1.8-1.2-0.6-4-1.3-1.1-0.3-1.3-0.6-0.3-0.3-0.3-0.6-0.1-0.6 0.3-0.9 0.4-0.4 1.1-0.4 0.9 0 1.4 0.5 0.5 0.5 0.7 1.6l3.9-0.3q-0.3-2.4-1.6-3.5-1.4-1.1-4-1.1-2.1 0-3.3 0.6-1.2 0.6-1.8 1.6-0.6 1.1-0.6 2.3 0 1.8 1.2 3 1.1 1.1 3.9 1.8 1.7 0.4 2.1 0.9 0.5 0.5 0.5 1.1 0 0.6-0.5 1.1-0.5 0.5-1.4 0.5-1.2 0-1.8-1-0.4-0.5-0.5-1.6l-4 0.2q0.2 2.4 1.5 3.9zm-56 22.5c-1.1 0-2-0.9-2-2 0-1 0.9-1.9 2-1.9h30.2c1.1 0 2 0.9 2 1.9 0 1.1-0.9 2-2 2zm39 0c-1.1 0-2-0.9-2-2 0-1.1 0.9-2 2-2h32.6c1.1 0 2 0.9 2 2 0 1.1-0.9 2-2 2zm0 11.5c-1.1 0-2-0.9-2-2 0-1.1 0.9-1.9 2-1.9h32.6c1.1 0 2 0.8 2 1.9 0 1.1-0.9 2-2 2zm0 11.5c-1.1 0-2-0.8-2-1.9 0-1.1 0.9-2 2-2h32.7c1.1 0 2 0.9 2 2 0 1.1-0.9 1.9-2 1.9zm-39 0c-1.1 0-1.9-0.8-1.9-1.9 0-1.1 0.8-2 1.9-2h30.3c1.1 0 2 0.9 2 2 0 1.1-0.9 1.9-2 1.9zm0.9-11.5c-1.1 0-1.9-0.9-1.9-2 0-1 0.9-1.9 1.9-1.9h30.3c1.1 0 2 0.9 2 1.9 0 1.1-0.9 2-2 2z"/>
	</g>
</svg>