<svg width="93" height="93" viewBox="0 0 93 93" fill="none" xmlns="http://www.w3.org/2000/svg">
<circle cx="46.3453" cy="46.3453" r="46.3453" fill="#ED1F32" fill-opacity="0.05"/>
<circle cx="46.3451" cy="46.3453" r="39.0276" fill="#ED1F32" fill-opacity="0.15"/>
<circle cx="46.3445" cy="46.3453" r="31.71" fill="#ED1F32"/>
<g clip-path="url(#clip0_704_2)">
<path d="M40.1156 46.3405C39.3972 47.0727 38.688 47.8158 37.9565 48.5357C37.1781 49.3018 35.9228 49.1057 35.4559 48.1411C35.3398 47.9011 35.296 47.6089 35.2852 47.3381C35.2606 46.7274 35.2775 46.1144 35.2775 45.5844C34.6875 45.4221 34.113 45.3475 33.6153 45.1106C32.4116 44.5368 31.7585 43.5261 31.737 42.2016C31.6978 39.7941 31.707 37.385 31.7316 34.9775C31.7509 33.1608 33.2554 31.7147 35.0798 31.7132C38.5888 31.7086 42.0977 31.7101 45.6067 31.7124C47.6127 31.714 49.0556 33.1477 49.0656 35.1591C49.0741 36.8282 49.0672 38.498 49.0672 40.1671C49.0672 40.281 49.0672 40.3956 49.0672 40.5571C49.2079 40.5571 49.3279 40.5571 49.4479 40.5571C51.88 40.5571 54.3121 40.551 56.7442 40.5594C58.6595 40.5656 60.1955 41.8078 60.5816 43.6576C60.6439 43.9553 60.6647 44.2668 60.6655 44.5714C60.6716 47.2866 60.6701 50.0017 60.6685 52.7169C60.667 55.0452 59.0241 56.7097 56.6942 56.7466C56.6181 56.7481 56.542 56.7543 56.422 56.7604C56.422 56.8689 56.422 56.9704 56.422 57.0712C56.422 57.7719 56.4227 58.4718 56.4212 59.1725C56.4204 59.9525 56.0658 60.5163 55.3551 60.8332C54.6844 61.1324 53.9668 60.9678 53.4014 60.4078C52.2408 59.2595 51.0809 58.1103 49.9294 56.9535C49.7725 56.7958 49.6148 56.742 49.3987 56.7427C47.6488 56.7497 45.8997 56.7527 44.1499 56.745C42.3246 56.7374 40.8047 55.5982 40.3502 53.8822C40.2533 53.5161 40.2133 53.1253 40.211 52.7454C40.1979 50.7309 40.2048 48.7157 40.2048 46.7012C40.2048 46.5982 40.2048 46.4951 40.2048 46.392C40.1756 46.3743 40.1456 46.3574 40.1156 46.3405ZM50.4471 41.9393C48.3611 41.9393 46.2751 41.9347 44.1883 41.9408C42.6531 41.9455 41.5924 43.0023 41.5901 44.5283C41.5862 47.2727 41.587 50.0163 41.5924 52.7607C41.5931 52.9984 41.6162 53.2422 41.6731 53.4722C41.9577 54.6283 42.94 55.3598 44.2099 55.3636C46.0751 55.369 47.9403 55.3698 49.8048 55.3605C50.1363 55.359 50.3901 55.459 50.624 55.6951C51.5562 56.6366 52.5023 57.5658 53.4422 58.4995C53.7622 58.8172 54.0783 59.1402 54.4044 59.4525C54.6267 59.6656 54.9282 59.6148 55.0121 59.3556C55.0405 59.2672 55.0359 59.1664 55.0367 59.071C55.0382 58.1019 55.0344 57.1327 55.039 56.1636C55.0421 55.6367 55.2997 55.3744 55.8082 55.3659C56.0966 55.3613 56.385 55.3667 56.6735 55.3644C58.2203 55.3505 59.2817 54.2922 59.2833 52.7515C59.2871 50.0171 59.2864 47.2827 59.281 44.5476C59.2802 44.3099 59.2594 44.0661 59.2033 43.8353C58.9264 42.6846 57.9534 41.9447 56.7042 41.9408C54.6198 41.9347 52.5338 41.9393 50.4471 41.9393ZM47.6496 40.544C47.665 40.4917 47.6788 40.4648 47.6788 40.4387C47.6796 38.625 47.7034 36.8112 47.6704 34.9991C47.6504 33.8999 46.8073 33.0992 45.719 33.0962C42.1716 33.0869 38.6242 33.0869 35.0767 33.0962C33.9799 33.0992 33.1231 33.9322 33.1154 35.0222C33.0984 37.4012 33.0992 39.781 33.1154 42.1608C33.1215 43.1292 33.8092 43.8999 34.7691 44.0514C35.1075 44.1045 35.4583 44.0861 35.8036 44.0899C36.4089 44.0968 36.6589 44.3407 36.6605 44.9483C36.6628 45.7252 36.6566 46.5028 36.6666 47.2796C36.6682 47.3889 36.7412 47.4966 36.7805 47.605C36.8851 47.5527 37.0112 47.5227 37.0904 47.445C38.0565 46.4959 39.0126 45.5375 39.9787 44.5883C40.1302 44.4391 40.2086 44.2868 40.234 44.0714C40.4809 41.9593 42.0646 40.5625 44.2006 40.5594C45.2482 40.5579 46.2966 40.5594 47.3442 40.5586C47.4488 40.5571 47.5511 40.5486 47.6496 40.544Z" fill="white"/>
<path d="M50.4511 47.6466C51.0226 47.6535 51.4618 48.1058 51.4533 48.6803C51.4449 49.2311 50.9895 49.6787 50.438 49.6787C49.875 49.6787 49.4196 49.2195 49.4219 48.6526C49.425 48.0827 49.8773 47.6396 50.4511 47.6466Z" fill="white"/>
<path d="M45.1354 48.6641C45.1323 48.0949 45.5838 47.6449 46.156 47.6465C46.7122 47.648 47.1644 48.0903 47.1752 48.641C47.1852 49.2002 46.7268 49.6717 46.1653 49.6779C45.6007 49.6848 45.1384 49.2294 45.1354 48.6641Z" fill="white"/>
<path d="M55.7407 48.6557C55.7422 49.2195 55.2822 49.6802 54.7192 49.6779C54.1577 49.6764 53.6955 49.2095 53.7008 48.6495C53.7062 48.0996 54.157 47.6519 54.7115 47.6465C55.2846 47.6404 55.7391 48.0865 55.7407 48.6557Z" fill="white"/>
</g>
<defs>
<clipPath id="clip0_704_2">
<rect width="28.96" height="29.2707" fill="white" transform="translate(31.711 31.7101)"/>
</clipPath>
</defs>
</svg>
