<svg width="12" height="12" viewBox="0 0 12 12" fill="none" xmlns="http://www.w3.org/2000/svg">
<g clip-path="url(#clip0_271_2974)">
<path d="M12.0001 5.99147C11.9837 9.29818 9.39082 11.8998 6.18966 11.9967C2.77206 12.0999 0.019138 9.37434 9.93402e-05 6.03222C-0.0186053 2.74188 2.60639 0.0337173 5.92813 0.000316211C9.28895 -0.0334189 11.9801 2.63633 12.0001 5.99147ZM1.70489 8.90772C2.90399 7.72866 4.33323 7.10406 6.00796 7.10506C7.68135 7.10607 9.10958 7.73301 10.2997 8.90605C11.5839 7.09839 11.6113 4.22556 9.65536 2.29998C7.64094 0.316959 4.50925 0.279549 2.43437 2.22149C0.440994 4.08661 0.36484 7.00119 1.70489 8.90772Z" fill="#C8CED3"/>
<path d="M8.40277 4.00054C8.40545 5.31421 7.32625 6.39674 6.01292 6.39741C4.69057 6.39841 3.6057 5.3279 3.60303 4.01958C3.60036 2.66984 4.66853 1.59899 6.01827 1.59766C7.32692 1.59632 8.4001 2.67752 8.40277 4.00054Z" fill="#C8CED3"/>
</g>
<defs>
<clipPath id="clip0_271_2974">
<rect width="12" height="11.9993" fill="white"/>
</clipPath>
</defs>
</svg>
