<svg width="12" height="12" viewBox="0 0 12 12" fill="none" xmlns="http://www.w3.org/2000/svg">
<path d="M10.6153 2.3077H8.30759C8.30762 1.03315 7.27445 0 5.99991 0C4.72538 0 3.69221 1.03315 3.69221 2.3077H1.38453C1.06583 2.3077 0.807617 2.56594 0.807617 2.88462C0.807617 3.2033 1.06585 3.46153 1.38453 3.46153H1.6153V10.5C1.61668 11.328 2.2873 11.9986 3.1153 12H8.88453C9.71253 11.9986 10.3831 11.328 10.3845 10.5V3.46153H10.6153C10.934 3.46153 11.1922 3.2033 11.1922 2.88462C11.1922 2.56594 10.934 2.3077 10.6153 2.3077ZM5.99991 1.15385C6.63706 1.15385 7.15377 1.67055 7.15377 2.3077H4.84606C4.84606 1.67053 5.36277 1.15385 5.99991 1.15385ZM9.23068 10.5C9.23068 10.6911 9.07559 10.8461 8.88453 10.8461H3.1153C2.92421 10.8461 2.76915 10.6911 2.76915 10.5V3.46153H9.23068V10.5Z" fill="#F13232"/>
<path d="M4.73072 8.88438C4.41202 8.88438 4.15381 8.62615 4.15381 8.30747V5.99977C4.15381 5.68106 4.41204 5.42285 4.73072 5.42285C5.0494 5.42285 5.30764 5.68109 5.30764 5.99977V8.30747C5.30766 8.62615 5.04943 8.88438 4.73072 8.88438Z" fill="#FFBBC0"/>
<path d="M7.2693 8.88438C6.95059 8.88438 6.69238 8.62615 6.69238 8.30747V5.99977C6.69238 5.68106 6.95062 5.42285 7.2693 5.42285C7.588 5.42285 7.84621 5.68109 7.84621 5.99977V8.30747C7.84621 8.62615 7.58798 8.88438 7.2693 8.88438Z" fill="#FFBBC0"/>
</svg>
