<svg width="12" height="12" viewBox="0 0 12 12" fill="none" xmlns="http://www.w3.org/2000/svg">
<path d="M10.0505 4.27468C10.002 4.29847 9.96726 4.3135 9.93439 4.33165C8.99058 4.84848 8.0474 5.36656 7.10171 5.87994C7.02 5.92439 6.99653 5.97291 6.99715 6.06182C7.00279 7.01439 7.00404 7.96697 7.00686 8.91923C7.00686 8.95585 7.01093 8.99248 7.01406 9.03912C7.05819 9.02003 7.09012 9.00782 7.12112 8.99279C8.05929 8.54233 8.99653 8.0903 9.93596 7.64235C10.0205 7.60196 10.054 7.5572 10.0537 7.45922C10.0496 6.44028 10.0512 5.42134 10.0512 4.4024C10.0505 4.36515 10.0505 4.32758 10.0505 4.27468ZM2.95896 4.27312C2.95551 4.30317 2.95301 4.31475 2.95301 4.32633C2.9527 5.38409 2.95363 6.44216 2.9505 7.49991C2.95019 7.57348 2.98306 7.60009 3.04066 7.62763C3.98604 8.0806 4.93079 8.53513 5.87585 8.98904C5.90934 9.00531 5.94472 9.01815 5.98792 9.03599C5.99042 8.99999 5.99355 8.97777 5.99355 8.95523C5.99418 7.97949 5.99324 7.00343 5.99699 6.02769C5.99731 5.95006 5.96131 5.92001 5.90246 5.88777C5.31394 5.56628 4.72637 5.24291 4.1388 4.92017C3.75 4.70699 3.3609 4.49381 2.95896 4.27312ZM3.55717 3.44638C3.59129 3.46955 3.61195 3.48614 3.63481 3.49866C4.56422 4.00891 5.49457 4.51823 6.42273 5.03098C6.48533 5.06542 6.52791 5.05352 6.58206 5.02347C7.50834 4.51509 8.43525 4.00829 9.36185 3.50085C9.3872 3.48708 9.40974 3.46861 9.44198 3.44638C9.38407 3.4179 9.33899 3.39504 9.2936 3.37313C8.39706 2.94427 7.5002 2.51635 6.60523 2.08435C6.52634 2.04648 6.46593 2.04616 6.38798 2.08404C5.75689 2.39082 5.12393 2.69321 4.49159 2.99686C4.18388 3.14461 3.87647 3.29268 3.55717 3.44638ZM2.1892 3.09077C2.3429 2.88072 2.4894 2.68007 2.63966 2.4744C2.44526 2.30849 2.25086 2.14289 2.04457 1.96696C1.86645 2.21207 1.69804 2.44403 1.52493 2.68257C1.75814 2.82594 1.97038 2.95648 2.1892 3.09077ZM5.01938 0.142578C4.73232 0.236803 4.45872 0.326645 4.1773 0.419304C4.28561 0.67756 4.38266 0.909209 4.47844 1.13804C4.727 1.05665 4.96178 0.979642 5.2025 0.900756C5.14334 0.655648 5.08511 0.414295 5.01938 0.142578ZM3.38688 0.820619C3.14114 1.00062 2.91012 1.16997 2.67315 1.34371C2.85378 1.55407 3.01812 1.74565 3.1809 1.93503C3.39158 1.78165 3.59192 1.63546 3.79759 1.48582C3.66329 1.26795 3.53056 1.05321 3.38688 0.820619ZM1.84047 3.77006C1.60256 3.67114 1.37029 3.57473 1.11892 3.47017C1.02657 3.75535 0.937354 4.02989 0.845947 4.31256C1.11798 4.37736 1.36215 4.43558 1.60475 4.49349C1.68489 4.24745 1.76065 4.01517 1.84047 3.77006Z" fill="white"/>
<path d="M0 5.79822C0.258569 5.57284 0.517765 5.34839 0.775395 5.12206C1.00078 4.92422 1.15981 4.91859 1.40022 5.10328C1.64188 5.2886 1.88386 5.4736 2.12522 5.65861C2.15558 5.68209 2.18532 5.7065 2.22132 5.73499C2.06292 5.94128 1.90922 6.14163 1.75082 6.34792C1.67632 6.29439 1.60808 6.24555 1.53764 6.19516C1.46377 6.58927 1.90609 7.78821 2.37064 8.43056C3.14384 9.50021 4.17749 10.1779 5.47848 10.4105C8.30208 10.9155 10.8252 8.93737 11.1704 6.27686C11.368 4.75424 10.9303 3.41287 9.87479 2.29846C8.82204 1.18718 7.50603 0.705097 5.96807 0.787426C5.94835 0.528857 5.92925 0.278113 5.91016 0.0276828C8.25231 -0.226504 11.0606 1.27639 11.826 4.26371C12.5823 7.21629 10.8061 10.2581 7.85444 11.0616C6.18375 11.5165 4.60448 11.2614 3.17201 10.2866C1.74425 9.31489 0.947253 7.9394 0.722492 6.21488C0.651119 6.27561 0.589451 6.3282 0.520582 6.38705C0.34622 6.19766 0.17311 6.00952 0 5.82139C0 5.81356 0 5.80574 0 5.79822Z" fill="#C8CED3"/>
<path d="M10.0503 4.2749C10.0503 4.32781 10.0503 4.36568 10.0503 4.40325C10.0503 5.42219 10.0488 6.44113 10.0529 7.46006C10.0532 7.55773 10.0197 7.60281 9.93515 7.64319C8.99572 8.09115 8.05849 8.54286 7.12031 8.99364C7.08932 9.00835 7.05739 9.02087 7.01325 9.03997C7.01044 8.99333 7.00637 8.9567 7.00605 8.92007C7.00324 7.9675 7.00198 7.01492 6.99635 6.06266C6.99572 5.97376 7.0192 5.92524 7.1009 5.88079C8.04659 5.36741 8.98978 4.84901 9.93358 4.3325C9.96708 4.31372 10.0018 4.29838 10.0503 4.2749Z" fill="#C8CED3"/>
<path d="M2.95889 4.27295C3.36083 4.49364 3.74994 4.70682 4.13873 4.92031C4.72662 5.24305 5.31388 5.56674 5.90239 5.88791C5.96124 5.91984 5.99693 5.94989 5.99693 6.02784C5.99348 7.00358 5.99411 7.97963 5.99348 8.95537C5.99348 8.9776 5.99035 9.00014 5.98785 9.03614C5.94465 9.01798 5.90928 9.00515 5.87578 8.98918C4.93072 8.53528 3.98628 8.08043 3.04059 7.62778C2.983 7.60023 2.95044 7.57362 2.95044 7.50006C2.95326 6.4423 2.95263 5.38423 2.95294 4.32648C2.95294 4.31458 2.95545 4.303 2.95889 4.27295Z" fill="#C8CED3"/>
<path d="M3.55713 3.44637C3.87674 3.29267 4.18414 3.1446 4.49155 2.99685C5.12388 2.6932 5.75684 2.39081 6.38793 2.08403C6.46587 2.04616 6.52629 2.04616 6.60518 2.08435C7.50015 2.51634 8.39732 2.94395 9.29354 3.37312C9.33893 3.39503 9.38401 3.41788 9.44192 3.44637C9.40968 3.46828 9.38714 3.48707 9.36178 3.50084C8.43519 4.00859 7.50829 4.51539 6.58201 5.02345C6.52754 5.05319 6.48497 5.0654 6.42268 5.03097C5.49452 4.51821 4.56417 4.0089 3.63476 3.49865C3.6116 3.48581 3.59094 3.46922 3.55713 3.44637Z" fill="#C8CED3"/>
<path d="M2.1891 3.0906C1.97029 2.95631 1.75805 2.82577 1.52515 2.6824C1.69826 2.44418 1.86667 2.21222 2.04479 1.9668C2.25108 2.14272 2.44517 2.30832 2.63987 2.47423C2.4893 2.68021 2.3428 2.88055 2.1891 3.0906Z" fill="#C8CED3"/>
<path d="M5.01914 0.142578C5.08457 0.414295 5.14279 0.655335 5.20196 0.900757C4.96154 0.979642 4.72645 1.05665 4.4779 1.13804C4.38211 0.909209 4.28476 0.677247 4.17676 0.419304C4.4588 0.326645 4.73209 0.236803 5.01914 0.142578Z" fill="#C8CED3"/>
<path d="M3.38665 0.820801C3.53033 1.05339 3.66306 1.26845 3.79704 1.4857C3.59137 1.63533 3.39103 1.78152 3.18036 1.93491C3.01789 1.74552 2.85354 1.55425 2.67261 1.34358C2.90989 1.17015 3.14091 1.0008 3.38665 0.820801Z" fill="#C8CED3"/>
<path d="M1.8403 3.77011C1.76047 4.01522 1.68472 4.24749 1.60426 4.49354C1.36166 4.43563 1.11749 4.37741 0.845459 4.31261C0.937179 4.02993 1.02608 3.75539 1.11843 3.47021C1.37011 3.57477 1.60239 3.67119 1.8403 3.77011Z" fill="#C8CED3"/>
</svg>
