<svg width="13" height="12" viewBox="0 0 13 12" fill="none" xmlns="http://www.w3.org/2000/svg">
<path d="M6.1051 11.9999C6.04244 11.9999 5.98001 11.9999 5.91735 11.9999C5.86057 11.9745 5.80262 11.9514 5.74703 11.9236C5.07964 11.5902 4.41272 11.256 3.74533 10.9224C2.60279 10.3511 1.46048 9.77961 0.317464 9.20975C0.190488 9.14638 0.0847142 9.06629 0.0326519 8.92965C-0.0566315 8.69478 0.0413682 8.45308 0.282127 8.33176C0.875073 8.03305 1.46967 7.7374 2.06355 7.44011C2.09936 7.4222 2.13352 7.40124 2.18229 7.37415C2.12457 7.34423 2.08711 7.32397 2.04918 7.30489C1.4692 7.01489 0.889443 6.72443 0.308747 6.43608C0.1813 6.37271 0.0785892 6.28861 0.0293538 6.15104C-0.0552181 5.91452 0.0463153 5.68012 0.290608 5.55738C0.880491 5.26103 1.47132 4.9668 2.06167 4.67138C2.09771 4.65324 2.13258 4.63298 2.18299 4.60566C2.12575 4.5755 2.08876 4.55501 2.05107 4.53616C1.47108 4.24617 0.891563 3.95547 0.310867 3.66712C0.179416 3.60187 0.0743489 3.51588 0.0267625 3.37218C-0.053569 3.12977 0.0519691 2.90621 0.309454 2.77759C2.10148 1.88169 3.8954 0.98886 5.6846 0.0868397C5.91334 -0.0285925 6.10934 -0.0290636 6.33714 0.086133C7.67545 0.762943 9.01894 1.42986 10.3606 2.10031C10.8147 2.32717 11.2687 2.5545 11.7231 2.78136C11.8541 2.84685 11.9667 2.93472 11.9943 3.08478C12.0494 3.38325 11.9669 3.53826 11.6953 3.67466C11.1191 3.96348 10.5427 4.25112 9.9662 4.5397C9.92945 4.55807 9.89435 4.57951 9.8444 4.60731C9.89505 4.6351 9.93086 4.65631 9.96808 4.67492C10.5478 4.96515 11.1276 5.25514 11.7078 5.54466C11.8786 5.62994 11.9933 5.7416 12.002 5.95504C12.0117 6.19155 11.9154 6.33738 11.7104 6.43844C11.1252 6.72678 10.5429 7.02055 9.95984 7.31266C9.92403 7.33056 9.88987 7.35153 9.84158 7.37862C9.89882 7.40854 9.93628 7.42856 9.97444 7.44765C10.5507 7.73599 11.1278 8.02292 11.7026 8.31433C11.7811 8.35414 11.8614 8.40573 11.9165 8.47217C12.1076 8.70256 12.0129 9.05451 11.7245 9.19915C10.831 9.64793 9.93699 10.0953 9.04203 10.5412C8.06368 11.0284 7.08416 11.5137 6.1051 11.9999ZM1.52691 3.21976C1.57285 3.24497 1.59594 3.25887 1.61973 3.27065C3.05557 3.98868 4.49164 4.70601 5.92653 5.42593C5.99627 5.4608 6.04809 5.44949 6.11146 5.41769C7.53293 4.70554 8.9551 3.99504 10.377 3.28384C10.4105 3.26711 10.4421 3.24709 10.4875 3.22141C10.4484 3.19927 10.4232 3.18349 10.3966 3.17029C8.96429 2.45344 7.53175 1.73776 6.10063 1.01854C6.02618 0.981086 5.972 0.995927 5.90533 1.02938C4.70743 1.62939 3.50858 2.22752 2.3102 2.82635C2.05602 2.95356 1.80207 3.08148 1.52691 3.21976ZM1.52668 5.98802C1.57403 6.0144 1.59971 6.02995 1.62656 6.04338C3.05839 6.75953 4.49046 7.47521 5.92159 8.19301C5.98896 8.22693 6.0415 8.22316 6.10675 8.19042C7.53434 7.47427 8.96311 6.76023 10.3914 6.04526C10.4206 6.03066 10.4477 6.01228 10.4871 5.98896C10.439 5.96281 10.406 5.94349 10.3719 5.9263C9.87597 5.67824 9.37914 5.43182 8.88467 5.1807C8.81046 5.14301 8.75298 5.14348 8.67877 5.18093C7.88724 5.57953 7.09193 5.97129 6.30181 6.37318C6.09756 6.47707 5.91593 6.4733 5.71287 6.36989C4.92651 5.96941 4.13568 5.57764 3.34485 5.18588C3.29845 5.16279 3.22636 5.14466 3.1856 5.16444C2.63836 5.43112 2.09418 5.70485 1.52668 5.98802ZM10.4953 8.76334C10.4392 8.73271 10.4063 8.7134 10.3721 8.6962C9.87621 8.44814 9.37938 8.20172 8.8849 7.9506C8.81069 7.91291 8.75345 7.91314 8.67901 7.9506C7.88394 8.35108 7.08533 8.74473 6.29144 9.14756C6.09521 9.24697 5.919 9.24368 5.72394 9.14473C4.93711 8.7452 4.14558 8.35485 3.35758 7.95743C3.27654 7.91644 3.21482 7.91173 3.13072 7.95461C2.63695 8.20667 2.13941 8.45167 1.64329 8.69926C1.61007 8.71575 1.57874 8.73601 1.53421 8.76169C1.57756 8.78595 1.6063 8.80386 1.63646 8.81893C3.06146 9.53131 4.48693 10.243 5.91099 10.9575C5.98614 10.9952 6.04338 10.9919 6.11688 10.9549C7.25118 10.3853 8.38689 9.81872 9.52213 9.25121C9.83922 9.09244 10.1561 8.93319 10.4953 8.76334Z" fill="#C8CED3"/>
<path d="M6.1051 11.9999C6.04244 11.9999 5.98001 11.9999 5.91735 11.9999C5.86057 11.9745 5.80262 11.9514 5.74703 11.9236C5.07964 11.5902 4.41272 11.256 3.74533 10.9224C2.60279 10.3511 1.46048 9.77961 0.317464 9.20975C0.190488 9.14638 0.0847142 9.06629 0.0326519 8.92965C-0.0566315 8.69478 0.0413682 8.45308 0.282127 8.33176C0.875073 8.03305 1.46967 7.7374 2.06355 7.44011C2.09936 7.4222 2.13352 7.40124 2.18229 7.37415C2.12457 7.34423 2.08711 7.32397 2.04918 7.30489C1.4692 7.01489 0.889443 6.72443 0.308747 6.43608C0.1813 6.37271 0.0785892 6.28861 0.0293538 6.15104C-0.0552181 5.91452 0.0463153 5.68012 0.290608 5.55738C0.880491 5.26103 1.47132 4.9668 2.06167 4.67138C2.09771 4.65324 2.13258 4.63298 2.18299 4.60566C2.12575 4.5755 2.08876 4.55501 2.05107 4.53616C1.47108 4.24617 0.891563 3.95547 0.310867 3.66712C0.179416 3.60187 0.0743489 3.51588 0.0267625 3.37218C-0.053569 3.12977 0.0519691 2.90621 0.309454 2.77759C2.10148 1.88169 3.8954 0.98886 5.6846 0.0868397C5.91334 -0.0285925 6.10934 -0.0290636 6.33714 0.086133C7.67545 0.762943 9.01894 1.42986 10.3606 2.10031C10.8147 2.32717 11.2687 2.5545 11.7231 2.78136C11.8541 2.84685 11.9667 2.93472 11.9943 3.08478C12.0494 3.38325 11.9669 3.53826 11.6953 3.67466C11.1191 3.96348 10.5427 4.25112 9.9662 4.5397C9.92945 4.55807 9.89435 4.57951 9.8444 4.60731C9.89505 4.6351 9.93086 4.65631 9.96808 4.67492C10.5478 4.96515 11.1276 5.25514 11.7078 5.54466C11.8786 5.62994 11.9933 5.7416 12.002 5.95504C12.0117 6.19155 11.9154 6.33738 11.7104 6.43844C11.1252 6.72678 10.5429 7.02055 9.95984 7.31266C9.92403 7.33056 9.88987 7.35153 9.84158 7.37862C9.89882 7.40854 9.93628 7.42856 9.97444 7.44765C10.5507 7.73599 11.1278 8.02292 11.7026 8.31433C11.7811 8.35414 11.8614 8.40573 11.9165 8.47217C12.1076 8.70256 12.0129 9.05451 11.7245 9.19915C10.831 9.64793 9.93699 10.0953 9.04203 10.5412C8.06368 11.0284 7.08416 11.5137 6.1051 11.9999ZM1.52691 3.21976C1.57285 3.24497 1.59594 3.25887 1.61973 3.27065C3.05557 3.98868 4.49164 4.70601 5.92653 5.42593C5.99627 5.4608 6.04809 5.44949 6.11146 5.41769C7.53293 4.70554 8.9551 3.99504 10.377 3.28384C10.4105 3.26711 10.4421 3.24709 10.4875 3.22141C10.4484 3.19927 10.4232 3.18349 10.3966 3.17029C8.96429 2.45344 7.53175 1.73776 6.10063 1.01854C6.02618 0.981086 5.972 0.995927 5.90533 1.02938C4.70743 1.62939 3.50858 2.22752 2.3102 2.82635C2.05602 2.95356 1.80207 3.08148 1.52691 3.21976ZM1.52668 5.98802C1.57403 6.0144 1.59971 6.02995 1.62656 6.04338C3.05839 6.75953 4.49046 7.47521 5.92159 8.19301C5.98896 8.22693 6.0415 8.22316 6.10675 8.19042C7.53434 7.47427 8.96311 6.76023 10.3914 6.04526C10.4206 6.03066 10.4477 6.01228 10.4871 5.98896C10.439 5.96281 10.406 5.94349 10.3719 5.9263C9.87597 5.67824 9.37914 5.43182 8.88467 5.1807C8.81046 5.14301 8.75298 5.14348 8.67877 5.18093C7.88724 5.57953 7.09193 5.97129 6.30181 6.37318C6.09756 6.47707 5.91593 6.4733 5.71287 6.36989C4.92651 5.96941 4.13568 5.57764 3.34485 5.18588C3.29845 5.16279 3.22636 5.14466 3.1856 5.16444C2.63836 5.43112 2.09418 5.70485 1.52668 5.98802ZM10.4953 8.76334C10.4392 8.73271 10.4063 8.7134 10.3721 8.6962C9.87621 8.44814 9.37938 8.20172 8.8849 7.9506C8.81069 7.91291 8.75345 7.91314 8.67901 7.9506C7.88394 8.35108 7.08533 8.74473 6.29144 9.14756C6.09521 9.24697 5.919 9.24368 5.72394 9.14473C4.93711 8.7452 4.14558 8.35485 3.35758 7.95743C3.27654 7.91644 3.21482 7.91173 3.13072 7.95461C2.63695 8.20667 2.13941 8.45167 1.64329 8.69926C1.61007 8.71575 1.57874 8.73601 1.53421 8.76169C1.57756 8.78595 1.6063 8.80386 1.63646 8.81893C3.06146 9.53131 4.48693 10.243 5.91099 10.9575C5.98614 10.9952 6.04338 10.9919 6.11688 10.9549C7.25118 10.3853 8.38689 9.81872 9.52213 9.25121C9.83922 9.09244 10.1561 8.93319 10.4953 8.76334Z" fill="#C8CED3"/>
</svg>
