<svg width="19" height="22" viewBox="0 0 19 22" fill="none" xmlns="http://www.w3.org/2000/svg">
<path d="M16.0444 11.2949V9.23828C16.0444 6.23812 14.0849 3.69527 11.4 2.86473V1.93359C11.4 0.86741 10.5477 0 9.50002 0C8.45236 0 7.60003 0.86741 7.60003 1.93359V2.86473C4.91512 3.69527 2.9556 6.23807 2.9556 9.23828V11.2949C2.9556 13.9302 1.96853 16.4291 0.176242 18.3312C0.000598237 18.5176 -0.0487594 18.7927 0.0508003 19.0302C0.15036 19.2677 0.379626 19.4219 0.633381 19.4219H6.39708C6.69128 20.8911 7.97078 22 9.50002 22C11.0293 22 12.3087 20.8911 12.603 19.4219H18.3667C18.6204 19.4219 18.8496 19.2677 18.9492 19.0302C19.0488 18.7927 18.9994 18.5176 18.8238 18.3312C17.0315 16.4291 16.0444 13.9302 16.0444 11.2949ZM8.86669 1.93359C8.86669 1.5782 9.1508 1.28906 9.50002 1.28906C9.84924 1.28906 10.1334 1.5782 10.1334 1.93359V2.60941C9.9249 2.58895 9.71366 2.57812 9.50002 2.57812C9.28638 2.57812 9.07514 2.58895 8.86669 2.60941V1.93359ZM9.50002 20.7109C8.67437 20.7109 7.9704 20.1721 7.70896 19.4219H11.2911C11.0296 20.1721 10.3257 20.7109 9.50002 20.7109ZM1.99842 18.1328C3.44077 16.1652 4.22226 13.784 4.22226 11.2949V9.23828C4.22226 6.27666 6.58986 3.86719 9.50002 3.86719C12.4102 3.86719 14.7778 6.27666 14.7778 9.23828V11.2949C14.7778 13.784 15.5593 16.1652 17.0017 18.1328H1.99842Z" fill="#6D6E71"/>
</svg>
