<svg width="93" height="93" viewBox="0 0 93 93" fill="none" xmlns="http://www.w3.org/2000/svg">
<circle cx="46.3453" cy="46.3453" r="46.3453" fill="#ED1F32" fill-opacity="0.05"/>
<circle cx="46.3451" cy="46.3453" r="39.0276" fill="#ED1F32" fill-opacity="0.15"/>
<circle cx="46.3445" cy="46.3453" r="31.71" fill="#ED1F32"/>
<path d="M58.905 53.7526C58.8984 53.7526 58.8984 53.7592 58.905 53.7526ZM58.905 53.7526C58.6454 54.0307 58.3791 54.2824 58.0929 54.5605C57.6602 54.9711 57.2209 55.4016 56.8081 55.885C56.1358 56.6002 55.3436 56.938 54.3052 56.938C54.2053 56.938 54.0988 56.938 53.999 56.9314C52.0219 56.8055 50.1846 56.0373 48.8066 55.3817C45.0389 53.5671 41.7305 50.991 38.9812 47.7261C36.7112 45.0042 35.1935 42.4876 34.1883 39.7857C33.5692 38.1366 33.3429 36.8519 33.4427 35.64C33.5093 34.8651 33.8088 34.2227 34.3614 33.6731L36.6313 31.4148C36.9575 31.1101 37.3037 30.9446 37.6432 30.9446C38.0625 30.9446 38.402 31.1962 38.6151 31.4082C38.6217 31.4148 38.6284 31.4214 38.635 31.428C39.0411 31.8055 39.4272 32.1962 39.8333 32.6135C40.0396 32.8254 40.2526 33.0373 40.4657 33.2558L42.283 35.0638C42.9886 35.7658 42.9886 36.4148 42.283 37.1168C42.0899 37.3088 41.9035 37.5009 41.7105 37.6863C41.1513 38.2558 40.6188 38.7857 40.0396 39.3022C40.0263 39.3155 40.013 39.3221 40.0063 39.3353C39.4339 39.9049 39.5404 40.4612 39.6602 40.8386C39.6668 40.8585 39.6735 40.8784 39.6802 40.8982C40.1528 42.0373 40.8185 43.1102 41.8303 44.3883L41.837 44.3949C43.6742 46.6466 45.6114 48.4016 47.7482 49.7459C48.0211 49.9181 48.3007 50.0572 48.567 50.1896C48.8066 50.3088 49.033 50.4214 49.226 50.5406C49.2526 50.5539 49.2793 50.5737 49.3059 50.587C49.5322 50.6996 49.7453 50.7526 49.9649 50.7526C50.5174 50.7526 50.8636 50.4082 50.9768 50.2956L53.2534 48.0307C53.4797 47.8055 53.8392 47.534 54.2586 47.534M58.905 53.7526C59.584 53.0506 59.584 52.3552 58.8984 51.6797L55.2305 48.0307" stroke="white"/>
</svg>
